<svg width="242" height="166" fill="none" xmlns="http://www.w3.org/2000/svg">
  <path d="M178.67 100.124a58.407 58.407 0 01-5.321 24.384c-3.516 7.682-8.659 14.571-15.098 20.226a63.352 63.352 0 01-5.641 4.416 62.71 62.71 0 01-7.945 4.696h-.029c-.59.298-1.189.582-1.793.857a61.677 61.677 0 01-6.211 2.455c-1.45.466-2.938.932-4.441 1.314a65.255 65.255 0 01-26.582 1.206 61.214 61.214 0 01-3.113-.577l-.87-.191a63.778 63.778 0 01-12.044-4.011 64.146 64.146 0 01-2.72-1.3c-9.835-4.978-18.12-12.386-24.006-21.464-5.888-9.079-9.165-19.503-9.498-30.205-.334-10.701 2.29-21.296 7.602-30.698 5.312-9.403 13.12-17.276 22.627-22.813 9.507-5.538 20.37-8.54 31.476-8.7 11.106-.16 22.057 2.528 31.731 7.789 9.674 5.26 17.724 12.905 23.325 22.15 5.601 9.246 8.552 19.76 8.551 30.466z" fill="url(#paint0_linear)" />
  <path d="M132.423 104.494c3.992 3.96 15.62 19.37 15.62 19.37l-7.143 10.095-6.423-20.055-2.054-9.41z" fill="url(#paint1_linear)" />
  <path d="M144.636 153.878c-.59.299-1.189.583-1.793.858-.276.13-.546.251-.827.372a61.366 61.366 0 01-5.384 2.083c-1.45.465-2.938.931-4.441 1.313a65.255 65.255 0 01-29.695.629c-3.77 2.506-7.25 4.626-9.555 5.59l.189-1.551.783-6.489 1.812-15.098 7.182-6.695-16.147 1.207s1.696-22.687 8.317-27.355c6.622-4.667 13.567-8.85 13.567-8.85a9.217 9.217 0 002.702 1.159c2.296.612 4.683.847 7.061.694 2.832-.125 5.664-2.664 5.799-2.795 0 0 4.447.853 8.217 5.562a22.023 22.023 0 013.968 8.134c.928 3.443 2.576 11.483 4.451 21.196 1.228 6.252 2.518 13.184 3.794 20.036z" fill="url(#paint2_linear)" />
  <path d="M148.043 123.882l6.892 7.785 24.238-23.19.918-4.747 4.834-4.048-2.151 6.172v8.041s-18.695 29.208-23.847 30.713c-6.026 1.766-18.017-10.659-18.017-10.659l7.133-10.067z" fill="url(#paint3_linear)" />
  <path d="M122.882 134.527l5.621 13.044 7.264-3.01-5.326-12.764-7.559 2.73z" fill="#7E57C2" />
  <path d="M130.712 142.954c-.904.718-2.252.55-3.925.634a9.81 9.81 0 00-6.089 2.301c-2.248 1.822-8.531 6.587-14.814 10.938-1.14.787-2.281 1.565-3.383 2.329-3.77 2.507-7.25 4.626-9.555 5.591a5.92 5.92 0 01-1.933.545c-3.229.079-3.92-6.443-4.118-11.647-.063-1.728-.077-3.307-.111-4.448-.135-4.566 0-13.044 0-13.044l16.147-1.211-1.711 10.779-.299 1.906v.014l4.833-1.724.15-.051 17.157-6.145 1.184-1.97.754 1.863h.073l7.346-.932s.126 2.823-1.706 4.272z" fill="url(#paint4_linear)" />
  <path d="M127.005 74.968c-.421-1.108-.783-1.863-.889-2.087v-.055s-.373.885-3.176.67c-2.803-.214-3.731-1.556-3.731-1.556s.88 2.907-2.46 4.151c-3.214 1.202-4.48.424-4.567.368.169.177 2.682 2.767 1.015 4.822-1.726 2.129-5.607 1.71-5.607 1.71v.027a32.576 32.576 0 001.639 3.117c.319.53.633 1.02.966 1.477v.032a10.78 10.78 0 003.384 3.34c-.603 3.41-2.334 6.539-4.935 8.921.875.44 1.777.828 2.702 1.16 1.802.657 4.224 1.309 6.384 1.128 2.503-.258 4.816-1.408 6.486-3.224l-1.107-4.095-.995-3.69c8.999-2.212 6.524-11.837 4.891-16.216zm-5.394 16.352l.16-.038.256-.07a4.415 4.415 0 01-1.17.308c.208-.051.421-.107.643-.172l.111-.028z" fill="url(#paint5_linear)" />
  <path d="M132.423 72.704c-3.712 3.29-5.317 2.362-5.418 2.274v-.01c-.421-1.108-.783-1.863-.885-2.087l-.024-.055s-.377.885-3.18.67c-2.803-.214-3.726-1.556-3.726-1.556s.879 2.907-2.46 4.151c-3.219 1.202-4.486.424-4.568.368.169.172 2.683 2.763 1.015 4.817-1.725 2.129-5.606 1.714-5.606 1.714v.024a32.406 32.406 0 001.638 3.12c.322.529.645 1.021.967 1.478v.032s-1.324 2.511-3.688 2.46c-2.363-.051-2.416-2.33-2.416-2.33s-1.673 2.907-6.84.108c-5.166-2.8-1.72-6.858-1.72-6.858s-3.663-2.701-3.663-6.75c0-4.048 5.703-7.127 5.703-7.127s-2.04-4.7 1.401-7.29c3.442-2.59 8.613-.835 8.613-.835s-.101-6.014 5.167-5.916c5.268.098 6.461 3.205 6.461 3.205s4.737-3.53 9.425-.205c4.688 3.326 2.76 9.126 2.76 9.126s4.915 4.048 1.044 7.472z" fill="url(#paint6_linear)" />
  <path opacity=".15" d="M123.148 94.86c-2.247-.685-6.244-3.298-6.244-3.298 1.577.16 3.171.079 4.722-.242l.159-.038.31-.088h.043l1.01 3.666zM105.087 120.957l-2.18 13.975-1.711 10.78-3.982 3.191 8.665-3.033s-2.247-6.186-.792-24.913zM102.487 159.133a62.09 62.09 0 003.112.578c.053-.955.15-1.92.285-2.884l-3.397 2.306z" fill="#000" />
  <g filter="url(#filter0_d)">
    <path d="M81.54 10.134H55.698c-3.566 0-6.457 2.787-6.457 6.224v24.909c0 3.437 2.89 6.224 6.457 6.224H81.54c3.566 0 6.457-2.787 6.457-6.224V16.358c0-3.437-2.89-6.224-6.457-6.224z" fill="#56CCF2" />
  </g>
  <path d="M78.316 27.507h-3.929l3.053-2.963-1.328-1.298-4.39 4.26h-1.885v-1.828l4.39-4.26-1.338-1.29-3.052 2.962v-3.812h-1.884v3.813L64.9 20.127l-1.337 1.29 4.39 4.26v1.829h-1.884l-4.39-4.261-1.329 1.298 3.053 2.963h-3.93v1.828h3.93l-3.053 2.963 1.328 1.298 4.39-4.26h1.885v1.828l-4.39 4.26 1.337 1.29 3.053-2.962v3.813h1.884v-3.813l3.052 2.962 1.338-1.29-4.39-4.26v-1.829h1.884l4.39 4.261 1.329-1.298-3.053-2.963h3.929v-1.828z" fill="#fff" />
  <g filter="url(#filter1_d)">
    <path d="M215.189 98.311h-25.843c-3.566 0-6.457 2.787-6.457 6.224v24.909c0 3.437 2.891 6.224 6.457 6.224h25.843c3.566 0 6.457-2.787 6.457-6.224v-24.909c0-3.437-2.891-6.224-6.457-6.224z" fill="#F2C94C" />
  </g>
  <path d="M211.152 113.855c0-4.572-3.768-8.229-8.478-8.229-4.711 0-8.479 3.657-8.479 8.229 0 2.834 1.507 5.395 3.768 6.857v2.286c0 1.189.754 2.195 1.884 2.56v.183c0 1.555 1.225 2.743 2.827 2.743 1.601 0 2.826-1.188 2.826-2.743v-.183c1.13-.365 1.884-1.371 1.884-2.56v-2.286c2.261-1.462 3.768-4.023 3.768-6.857zm-15.073 0c0-3.566 2.92-6.4 6.595-6.4 3.674 0 6.594 2.834 6.594 6.4 0 3.2-2.449 5.852-5.652 6.309v-2.286l1.601-1.554a.866.866 0 000-1.28.93.93 0 00-1.319 0l-1.224 1.188-1.225-1.188a.93.93 0 00-1.319 0 .866.866 0 000 1.28l1.601 1.554v2.286c-3.203-.457-5.652-3.109-5.652-6.309zm6.595 12.801c-.566 0-.943-.366-.943-.915h1.885c0 .549-.377.915-.942.915zm2.826-3.658c0 .549-.377.915-.942.915h-3.769c-.565 0-.942-.366-.942-.915v-1.371c.848.274 1.79.457 2.827.457a9.135 9.135 0 002.826-.457v1.371z" fill="#fff" />
  <g filter="url(#filter2_d)">
    <path d="M42.784 98.311H16.94c-3.566 0-6.457 2.787-6.457 6.224v24.909c0 3.437 2.891 6.224 6.457 6.224h25.843c3.566 0 6.457-2.787 6.457-6.224v-24.909c0-3.437-2.891-6.224-6.457-6.224z" fill="#F58A8A" />
  </g>
  <path d="M35.92 113.855h-.941v-1.829c0-2.523-2.11-4.572-4.71-4.572s-4.711 2.049-4.711 4.572v1.829h-.942c-1.037 0-1.885.823-1.885 1.829v9.143c0 1.006.848 1.829 1.885 1.829H35.92c1.036 0 1.884-.823 1.884-1.829v-9.143c0-1.006-.848-1.829-1.884-1.829zm-5.652 8.229c-1.036 0-1.884-.823-1.884-1.829s.848-1.828 1.884-1.828c1.037 0 1.885.822 1.885 1.828 0 1.006-.848 1.829-1.885 1.829zm2.92-8.229h-5.84v-1.829c0-1.563 1.31-2.834 2.92-2.834 1.611 0 2.92 1.271 2.92 2.834v1.829z" fill="#fff" />
  <g filter="url(#filter3_d)">
    <path d="M172.794 10.134h-25.842c-3.566 0-6.457 2.787-6.457 6.224v24.909c0 3.437 2.891 6.224 6.457 6.224h25.842c3.566 0 6.457-2.787 6.457-6.224V16.358c0-3.437-2.891-6.224-6.457-6.224z" fill="#6FCF97" />
  </g>
  <path d="M165.282 23.755h-15.386v9.332h15.386v-9.332zM169.429 25.612l-3.396 1.385v2.887l3.396 1.386h1.232v-5.658h-1.232z" fill="#fff" />
  <defs>
    <linearGradient id="paint0_linear" x1="116.257" y1="46.272" x2="114.266" y2="165.33" gradientUnits="userSpaceOnUse">
      <stop stop-color="#fff" stop-opacity="0" />
      <stop offset="1" stop-color="#64B5F6" stop-opacity=".6" />
    </linearGradient>
    <linearGradient id="paint1_linear" x1="127.691" y1="100.492" x2="144.027" y2="130.274" gradientUnits="userSpaceOnUse">
      <stop stop-color="#E57373" />
      <stop offset="1" stop-color="#AD1457" />
    </linearGradient>
    <linearGradient id="paint2_linear" x1="26513" y1="36361.6" x2="24812.5" y2="45068.9" gradientUnits="userSpaceOnUse">
      <stop stop-color="#E57373" />
      <stop offset="1" stop-color="#AD1457" />
    </linearGradient>
    <linearGradient id="paint3_linear" x1="191.483" y1="111.258" x2="145.537" y2="138.873" gradientUnits="userSpaceOnUse">
      <stop stop-color="#FFF8E1" />
      <stop offset="1" stop-color="#FFCC80" />
    </linearGradient>
    <linearGradient id="paint4_linear" x1="20399.9" y1="20383.7" x2="17931.8" y2="18657.1" gradientUnits="userSpaceOnUse">
      <stop stop-color="#FFF8E1" />
      <stop offset="1" stop-color="#FFCC80" />
    </linearGradient>
    <linearGradient id="paint5_linear" x1="131.736" y1="79.712" x2="106.489" y2="90.5" gradientUnits="userSpaceOnUse">
      <stop stop-color="#FFF8E1" />
      <stop offset="1" stop-color="#FFCC80" />
    </linearGradient>
    <linearGradient id="paint6_linear" x1="125.879" y1="52.929" x2="97.405" y2="92.844" gradientUnits="userSpaceOnUse">
      <stop stop-color="#FFB74D" />
      <stop offset="1" stop-color="#F4511E" />
    </linearGradient>
    <filter id="filter0_d" x="39.241" y=".134" width="68.757" height="67.356" filterUnits="userSpaceOnUse" color-interpolation-filters="sRGB">
      <feFlood flood-opacity="0" result="BackgroundImageFix" />
      <feColorMatrix in="SourceAlpha" values="0 0 0 0 0 0 0 0 0 0 0 0 0 0 0 0 0 0 127 0" />
      <feOffset dx="5" dy="5" />
      <feGaussianBlur stdDeviation="7.5" />
      <feColorMatrix values="0 0 0 0 0 0 0 0 0 0 0 0 0 0 0 0 0 0 0.15 0" />
      <feBlend in2="BackgroundImageFix" result="effect1_dropShadow" />
      <feBlend in="SourceGraphic" in2="effect1_dropShadow" result="shape" />
    </filter>
    <filter id="filter1_d" x="172.889" y="88.311" width="68.757" height="67.356" filterUnits="userSpaceOnUse" color-interpolation-filters="sRGB">
      <feFlood flood-opacity="0" result="BackgroundImageFix" />
      <feColorMatrix in="SourceAlpha" values="0 0 0 0 0 0 0 0 0 0 0 0 0 0 0 0 0 0 127 0" />
      <feOffset dx="5" dy="5" />
      <feGaussianBlur stdDeviation="7.5" />
      <feColorMatrix values="0 0 0 0 0 0 0 0 0 0 0 0 0 0 0 0 0 0 0.15 0" />
      <feBlend in2="BackgroundImageFix" result="effect1_dropShadow" />
      <feBlend in="SourceGraphic" in2="effect1_dropShadow" result="shape" />
    </filter>
    <filter id="filter2_d" x=".484" y="88.311" width="68.757" height="67.356" filterUnits="userSpaceOnUse" color-interpolation-filters="sRGB">
      <feFlood flood-opacity="0" result="BackgroundImageFix" />
      <feColorMatrix in="SourceAlpha" values="0 0 0 0 0 0 0 0 0 0 0 0 0 0 0 0 0 0 127 0" />
      <feOffset dx="5" dy="5" />
      <feGaussianBlur stdDeviation="7.5" />
      <feColorMatrix values="0 0 0 0 0 0 0 0 0 0 0 0 0 0 0 0 0 0 0.15 0" />
      <feBlend in2="BackgroundImageFix" result="effect1_dropShadow" />
      <feBlend in="SourceGraphic" in2="effect1_dropShadow" result="shape" />
    </filter>
    <filter id="filter3_d" x="130.495" y=".134" width="68.756" height="67.356" filterUnits="userSpaceOnUse" color-interpolation-filters="sRGB">
      <feFlood flood-opacity="0" result="BackgroundImageFix" />
      <feColorMatrix in="SourceAlpha" values="0 0 0 0 0 0 0 0 0 0 0 0 0 0 0 0 0 0 127 0" />
      <feOffset dx="5" dy="5" />
      <feGaussianBlur stdDeviation="7.5" />
      <feColorMatrix values="0 0 0 0 0 0 0 0 0 0 0 0 0 0 0 0 0 0 0.15 0" />
      <feBlend in2="BackgroundImageFix" result="effect1_dropShadow" />
      <feBlend in="SourceGraphic" in2="effect1_dropShadow" result="shape" />
    </filter>
  </defs>
</svg>
