<svg width="202" height="120" fill="none" xmlns="http://www.w3.org/2000/svg">
  <path d="M162.853 59.862c-.007 10.905-3.17 21.597-9.145 30.906-5.975 9.309-14.53 16.875-24.727 21.869a40.81 40.81 0 01-1.387.659l-.096.046-.332.151a62.09 62.09 0 01-6.186 2.411c-1.04.345-2.091.664-3.154.957l-1.271.334c-14.14 3.58-29.153 2.338-42.431-3.51a67.182 67.182 0 01-1.623-.746l-.962-.458c-9.53-4.747-17.614-11.746-23.474-20.324a49.491 49.491 0 01-1.762-2.745 70.962 70.962 0 01-1.444-2.476c-4.523-8.377-6.875-17.659-6.86-27.074 0-1.11.032-2.215.096-3.314.903-15.43 8.102-29.916 20.066-40.377C70.126 5.709 85.912.097 102.162.528c16.25.432 31.682 6.873 43.013 17.954 11.331 11.08 17.668 25.926 17.663 41.38h.015z" fill="url(#paint0_linear)" />
  <path d="M88.167 57.752s-13.961-6.293-15.174-14.951c-1.214-8.659-.361-16.933 6.595-19.248 0 0 4.4-13.336 19.998-7.977 15.597 5.359 13.137 21.45 21.663 23.376 8.526 1.927 24.446-6.187 27.484 3.712 3.038 9.898-6.952 9.294-13.59 17.697-6.639 8.402 3.615 12.813 1.738 18.598-1.878 5.785-8.969 9.762-8.969 9.762L88.167 57.752z" fill="url(#paint1_linear)" />
  <path d="M69.05 76.744l3.943 10.192h.428l6.167-26.575C75.693 63.605 69.05 76.744 69.05 76.744z" fill="url(#paint2_linear)" />
  <path d="M62.127 90.803l-2.498 1.194c-3.1 1.767-7.732 1.263-7.732 1.263 2.504 2.677 16.6 5.707 20.561 5.63l.732-9.483h-8.78l-2.283 1.396z" fill="url(#paint3_linear)" />
  <path d="M127.594 113.282l-.096.046-.332.151a61.667 61.667 0 01-6.187 2.412 65.232 65.232 0 01-3.153.956l-1.271.334c-14.14 3.58-29.154 2.338-42.431-3.51a63.687 63.687 0 01-1.623-.746l-.962-.457c.134-3.927.341-8.627.645-13.583.192-3.098.428-6.297.707-9.473.072-.829.15-1.652.227-2.476 1.136-11.707 2.956-22.562 5.873-26.012l.043-.046c.37-.485.893-.845 1.492-1.03 4.213-.952 7.183-1.272 7.65-2.096.467-.824 0-2.444 0-2.444l.838-.11c1.218-.173 3.582-.54 5.82-1.089.014.005.03.005.043 0 1.979-.49 3.852-1.12 4.766-1.88l1.878 4.745s14.12-1.698 19.632 3.405a.506.506 0 01.091.082c.058.05.113.104.164.16.328.33.62.69.871 1.076 1.796 2.746 3.067 13.766 3.948 25.72.202 2.745.385 5.582.544 8.36.366 6.417.64 12.631.823 17.505z" fill="url(#paint4_linear)" />
  <path opacity=".15" d="M127.498 113.342l-.332.151a62.236 62.236 0 01-6.186 2.411c-1.04.345-2.091.664-3.154.957-6.503-6.586-9.084-15.134-9.084-15.134l18.019-5.95.737 17.565z" fill="#000" />
  <path d="M121.148 60.36c6.523 6.087 7.943 18.865 6.74 28.374-1.204 9.51-3.438 18.416-8.078 18.141-4.641-.274-20.701-10.864-26.906-16.64l3.625-6.613 13.113 5.195V74.973l11.506-14.612z" fill="url(#paint5_linear)" />
  <path d="M121.148 60.36c6.523 6.087 7.943 18.865 6.74 28.374-1.204 9.51-3.438 18.416-8.078 18.141-4.641-.274-20.701-10.864-26.906-16.64l3.625-6.613 13.113 5.195V74.973l11.506-14.612z" fill="url(#paint6_linear)" />
  <g filter="url(#filter0_d)">
    <path d="M87.41 86.936H27.24v2.476h60.17v-2.476z" fill="url(#paint7_linear)" />
    <path d="M61.232 56.548H15.474l11.765 30.388h45.754L61.232 56.548z" fill="url(#paint8_linear)" />
  </g>
  <path d="M40.979 89.412s7.895 3.757 12.911 3.848c5.017.092 10.524-3.848 10.524-3.848H40.979z" fill="url(#paint9_linear)" />
  <path d="M96.529 83.622s-6.942-3.331-9.932-3.697c-2.99-.366-12.27 7.01-12.27 7.01H87.42l5.497 3.3 3.61-6.613z" fill="url(#paint10_linear)" />
  <path d="M99.056 44.723c.035 2.506.228 5.008.578 7.492-3.105 1.66-6.74 2.553-10.63 2.988l-.226-2.988-.135-1.831v-.06a5.997 5.997 0 01-2.176-.457c-4.698-1.927-5.71-11.345-5.71-11.345 1.883-.073 4.334-3.3 4.334-3.3 1.372 1.996 7.736 5.85 11.428 4.815 3.693-1.035 3.404-3.51 3.404-3.51a3.931 3.931 0 011.67 1.263c.424.558.679 1.217.737 1.904.197 2.416-3.274 5.029-3.274 5.029z" fill="url(#paint11_linear)" />
  <path opacity=".15" d="M95.903 47.382c-.872 1.4-4.814 3.629-7.12 4.842l-.135-1.83c.144 0 .284-.047.419-.074a16.409 16.409 0 005.387-1.913 8.405 8.405 0 001.381-.97l.068-.055zM104.231 86.68l10.216 3.972-4.814-3.3V74.996s-1.507 10.736-5.402 11.684z" fill="#000" />
  <defs>
    <linearGradient id="paint0_linear" x1="100.682" y1="6.95" x2="98.752" y2="123.935" gradientUnits="userSpaceOnUse">
      <stop stop-color="#fff" stop-opacity="0" />
      <stop offset="1" stop-color="#64B5F6" stop-opacity=".6" />
    </linearGradient>
    <linearGradient id="paint1_linear" x1="72.535" y1="51.51" x2="149.301" y2="51.51" gradientUnits="userSpaceOnUse">
      <stop stop-color="#EF9A9A" />
      <stop offset="1" stop-color="#D81B60" />
    </linearGradient>
    <linearGradient id="paint2_linear" x1="73.748" y1="74.703" x2="71.654" y2="99.75" gradientUnits="userSpaceOnUse">
      <stop stop-color="#7E57C2" />
      <stop offset="1" stop-color="#4527A0" />
    </linearGradient>
    <linearGradient id="paint3_linear" x1="6437.82" y1="2289.26" x2="6417.37" y2="2811.14" gradientUnits="userSpaceOnUse">
      <stop stop-color="#7E57C2" />
      <stop offset="1" stop-color="#4527A0" />
    </linearGradient>
    <linearGradient id="paint4_linear" x1="19218.4" y1="13459.8" x2="22870.4" y2="20504.6" gradientUnits="userSpaceOnUse">
      <stop stop-color="#7E57C2" />
      <stop offset="1" stop-color="#4527A0" />
    </linearGradient>
    <linearGradient id="paint5_linear" x1="13190.2" y1="8850.92" x2="16441.7" y2="14547.3" gradientUnits="userSpaceOnUse">
      <stop stop-color="#7E57C2" />
      <stop offset="1" stop-color="#4527A0" />
    </linearGradient>
    <linearGradient id="paint6_linear" x1="113.498" y1="65.523" x2="108.523" y2="108.208" gradientUnits="userSpaceOnUse">
      <stop offset=".14" stop-color="#7E57C2" stop-opacity="0" />
      <stop offset=".26" stop-color="#724DBB" stop-opacity=".21" />
      <stop offset=".48" stop-color="#5F3DAF" stop-opacity=".55" />
      <stop offset=".66" stop-color="#5131A7" stop-opacity=".79" />
      <stop offset=".81" stop-color="#482AA2" stop-opacity=".94" />
      <stop offset=".91" stop-color="#4527A0" />
    </linearGradient>
    <linearGradient id="paint7_linear" x1="27.239" y1="88.171" x2="87.411" y2="88.171" gradientUnits="userSpaceOnUse">
      <stop stop-color="#D2D4D5" />
      <stop offset="1" stop-color="#AAACAE" />
    </linearGradient>
    <linearGradient id="paint8_linear" x1="509.561" y1="3803.3" x2="3753.12" y2="7682.63" gradientUnits="userSpaceOnUse">
      <stop stop-color="#D2D4D5" />
      <stop offset="1" stop-color="#AAACAE" />
    </linearGradient>
    <linearGradient id="paint9_linear" x1="42.471" y1="85.279" x2="61.395" y2="93.813" gradientUnits="userSpaceOnUse">
      <stop stop-color="#FFF8E1" />
      <stop offset="1" stop-color="#FFCC80" />
    </linearGradient>
    <linearGradient id="paint10_linear" x1="7441.16" y1="2664.58" x2="7908.43" y2="3198.89" gradientUnits="userSpaceOnUse">
      <stop stop-color="#FFF8E1" />
      <stop offset="1" stop-color="#FFCC80" />
    </linearGradient>
    <linearGradient id="paint11_linear" x1="7601.21" y1="2923.21" x2="8003.48" y2="3717.58" gradientUnits="userSpaceOnUse">
      <stop stop-color="#FFF8E1" />
      <stop offset="1" stop-color="#FFCC80" />
    </linearGradient>
    <filter id="filter0_d" x=".474" y="41.548" width="111.937" height="72.863" filterUnits="userSpaceOnUse" color-interpolation-filters="sRGB">
      <feFlood flood-opacity="0" result="BackgroundImageFix" />
      <feColorMatrix in="SourceAlpha" values="0 0 0 0 0 0 0 0 0 0 0 0 0 0 0 0 0 0 127 0" />
      <feOffset dx="5" dy="5" />
      <feGaussianBlur stdDeviation="10" />
      <feColorMatrix values="0 0 0 0 0 0 0 0 0 0 0 0 0 0 0 0 0 0 0.2 0" />
      <feBlend in2="BackgroundImageFix" result="effect1_dropShadow" />
      <feBlend in="SourceGraphic" in2="effect1_dropShadow" result="shape" />
    </filter>
  </defs>
</svg>
